<svg width="24" height="25" viewBox="0 0 24 25" fill="none" xmlns="http://www.w3.org/2000/svg">
<path d="M11.9922 15.4922C11.4671 15.4927 10.9538 15.3372 10.5172 15.0454C10.0807 14.7536 9.74069 14.3387 9.54034 13.8534C9.33999 13.368 9.28834 12.8341 9.39193 12.3194C9.49553 11.8046 9.7497 11.3323 10.1222 10.9622C10.1925 10.8926 10.2757 10.8375 10.3673 10.8001C10.4588 10.7627 10.5568 10.7437 10.6557 10.7441C10.7546 10.7446 10.8525 10.7646 10.9437 10.8028C11.0348 10.8411 11.1176 10.897 11.1872 10.9672C11.2568 11.0375 11.3119 11.1208 11.3493 11.2123C11.3867 11.3038 11.4057 11.4019 11.4053 11.5008C11.4048 11.5996 11.3849 11.6975 11.3466 11.7887C11.3083 11.8799 11.2525 11.9626 11.1822 12.0322C11.0743 12.1377 10.9887 12.2637 10.9303 12.4028C10.8719 12.5419 10.8419 12.6913 10.8422 12.8422C10.8289 13.0797 10.8902 13.3154 11.0176 13.5163C11.145 13.7172 11.332 13.8733 11.5525 13.9626C11.773 14.0519 12.0159 14.07 12.2471 14.0143C12.4784 13.9586 12.6865 13.832 12.8422 13.6522C12.9845 13.5112 13.1768 13.432 13.3772 13.432C13.5776 13.432 13.7699 13.5112 13.9122 13.6522C14.0509 13.7958 14.1284 13.9876 14.1284 14.1872C14.1284 14.3868 14.0509 14.5787 13.9122 14.7222C13.6595 14.9718 13.3595 15.1685 13.0298 15.3007C12.7001 15.4329 12.3474 15.498 11.9922 15.4922Z" fill="white" fill-opacity="0.6"/>
<path d="M22.2422 12.8418C22.2422 15.5603 21.1623 18.1674 19.24 20.0896C17.3178 22.0119 14.7107 23.0918 11.9922 23.0918C9.27372 23.0918 6.66659 22.0119 4.74434 20.0896C2.82209 18.1674 1.74219 15.5603 1.74219 12.8418C1.74219 10.1233 2.82209 7.5162 4.74434 5.59395C6.66659 3.6717 9.27372 2.5918 11.9922 2.5918C12.1911 2.5918 12.3819 2.67081 12.5225 2.81147C12.6632 2.95212 12.7422 3.14288 12.7422 3.3418V7.1418C12.7396 7.3399 12.6597 7.52917 12.5197 7.66926C12.3796 7.80936 12.1903 7.88921 11.9922 7.8918C11.0128 7.88506 10.0543 8.17436 9.24219 8.7218C8.42551 9.26305 7.78863 10.0354 7.41282 10.9402C7.037 11.845 6.9393 12.8412 7.13219 13.8018C7.44587 14.9414 8.15312 15.933 9.12844 16.6007C10.1038 17.2683 11.2841 17.5689 12.4599 17.4491C13.6358 17.3292 14.7312 16.7966 15.5517 15.9459C16.3723 15.0952 16.8649 13.9812 16.9422 12.8018C16.941 12.703 16.9596 12.6049 16.9968 12.5134C17.0341 12.4218 17.0893 12.3387 17.1592 12.2688C17.2291 12.1989 17.3122 12.1437 17.4038 12.1064C17.4953 12.0692 17.5934 12.0506 17.6922 12.0518H21.4922C21.5941 12.0517 21.695 12.0723 21.7887 12.1125C21.8825 12.1526 21.967 12.2115 22.0372 12.2854C22.1074 12.3594 22.1618 12.4468 22.197 12.5425C22.2323 12.6381 22.2476 12.74 22.2422 12.8418Z" fill="white" fill-opacity="0.6"/>
<path d="M21.8811 6.97185C21.855 7.1664 21.7753 7.34989 21.6511 7.50185L19.4811 9.67185C19.1733 9.98274 18.7912 10.2099 18.3711 10.3318C18.1251 10.4082 17.8686 10.4454 17.6111 10.4418C17.4347 10.4566 17.2574 10.4566 17.0811 10.4418L15.7511 10.1818L13.4711 12.4718C13.3282 12.609 13.1391 12.6875 12.9411 12.6918C12.7422 12.6917 12.5516 12.6125 12.4111 12.4718C12.3403 12.4029 12.2841 12.3205 12.2457 12.2295C12.2073 12.1384 12.1875 12.0406 12.1875 11.9418C12.1875 11.8431 12.2073 11.7453 12.2457 11.6542C12.2841 11.5632 12.3403 11.4808 12.4111 11.4118L14.7011 9.11185L14.4311 7.79185C14.3504 7.36638 14.3709 6.9279 14.4911 6.51185C14.613 6.09171 14.8402 5.70964 15.1511 5.40185L17.3011 3.25185C17.4488 3.11746 17.6334 3.03039 17.8311 3.00185C18.0161 2.97437 18.205 3.00586 18.3711 3.09185C18.5361 3.17578 18.6746 3.30387 18.7711 3.46185C18.8687 3.63863 18.9106 3.84083 18.8911 4.04185L18.5711 6.30185L20.8211 5.99185C21.0094 5.97336 21.1989 6.01216 21.3649 6.10315C21.5308 6.19414 21.6654 6.3331 21.7511 6.50185C21.8325 6.64539 21.8772 6.80686 21.8811 6.97185Z" fill="white" fill-opacity="0.6"/>
</svg>
