<svg width="22" height="22" viewBox="0 0 22 22" fill="none" xmlns="http://www.w3.org/2000/svg">
<path d="M11 12.0085H17.1111C17.4574 12.0085 17.7479 11.8965 17.9826 11.6725C18.2172 11.4485 18.3341 11.1716 18.3333 10.8418V5.00846C18.3333 4.67791 18.216 4.40102 17.9813 4.1778C17.7467 3.95457 17.4566 3.84257 17.1111 3.8418H11C10.6537 3.8418 10.3636 3.9538 10.1298 4.1778C9.89592 4.4018 9.77859 4.67869 9.77778 5.00846V10.8418C9.77778 11.1724 9.89511 11.4496 10.1298 11.6736C10.3644 11.8976 10.6545 12.0092 11 12.0085ZM2.44444 21.3418C1.77222 21.3418 1.19696 21.1135 0.718667 20.657C0.24037 20.2004 0.000814815 19.6509 0 19.0085V2.67513C0 2.03346 0.239556 1.48435 0.718667 1.0278C1.19778 0.571241 1.77304 0.342575 2.44444 0.341797H19.5556C20.2278 0.341797 20.8034 0.570464 21.2826 1.0278C21.7617 1.48513 22.0008 2.03424 22 2.67513V19.0085C22 19.6501 21.7608 20.1996 21.2826 20.657C20.8043 21.1143 20.2286 21.3426 19.5556 21.3418H2.44444Z" fill="url(#paint0_linear_1393_1560)"/>
<defs>
<linearGradient id="paint0_linear_1393_1560" x1="8.50448" y1="0.341812" x2="16.2878" y2="3.33753" gradientUnits="userSpaceOnUse">
<stop stop-color="white"/>
</linearGradient>
</defs>
</svg>
