<!-- Help -->
<svg width="22" height="23" viewBox="0 0 22 23" fill="none" xmlns="http://www.w3.org/2000/svg">
<path d="M10.945 17.7562C11.33 17.7562 11.6556 17.6231 11.9218 17.3569C12.188 17.0907 12.3207 16.7655 12.32 16.3812C12.3193 15.997 12.1865 15.6714 11.9218 15.4044C11.6571 15.1375 11.3315 15.0048 10.945 15.0062C10.5585 15.0077 10.2333 15.1408 9.96929 15.4055C9.70529 15.6703 9.5722 15.9955 9.56999 16.3812C9.56779 16.767 9.70089 17.0926 9.96929 17.358C10.2377 17.6235 10.5629 17.7562 10.945 17.7562ZM9.955 13.5212H11.99C11.99 12.9162 12.0589 12.4396 12.1968 12.0912C12.3347 11.7429 12.7241 11.2662 13.365 10.6612C13.8417 10.1846 14.2175 9.73064 14.4925 9.29944C14.7675 8.86824 14.905 8.35051 14.905 7.74625C14.905 6.71958 14.5292 5.93125 13.7775 5.38125C13.0258 4.83125 12.1367 4.55625 11.11 4.55625C10.065 4.55625 9.21726 4.83125 8.5668 5.38125C7.91633 5.93125 7.4624 6.59125 7.205 7.36125L9.01999 8.07625C9.11166 7.74625 9.31809 7.38875 9.63929 7.00375C9.96049 6.61875 10.4507 6.42625 11.11 6.42625C11.6967 6.42625 12.1367 6.58685 12.43 6.90805C12.7233 7.22925 12.87 7.58198 12.87 7.96625C12.87 8.33291 12.76 8.67684 12.54 8.99804C12.32 9.31924 12.045 9.61698 11.715 9.89124C10.9083 10.6062 10.4133 11.1471 10.23 11.5137C10.0467 11.8804 9.955 12.5496 9.955 13.5212ZM11 22.1562C9.47833 22.1562 8.04833 21.8677 6.71 21.2905C5.37167 20.7134 4.2075 19.9295 3.2175 18.9387C2.2275 17.948 1.44393 16.7838 0.866801 15.4462C0.289668 14.1086 0.000734725 12.6786 1.3924e-06 11.1562C-0.00073194 9.63384 0.288201 8.20385 0.866801 6.86625C1.4454 5.52865 2.22897 4.36448 3.2175 3.37375C4.20603 2.38302 5.3702 1.59945 6.71 1.02305C8.0498 0.446655 9.4798 0.157722 11 0.156256C12.5202 0.154789 13.9502 0.443722 15.29 1.02305C16.6298 1.60239 17.794 2.38595 18.7825 3.37375C19.771 4.36155 20.555 5.52572 21.1343 6.86625C21.7136 8.20678 22.0022 9.63678 22 11.1562C21.9978 12.6757 21.7089 14.1057 21.1332 15.4462C20.5575 16.7868 19.774 17.9509 18.7825 18.9387C17.791 19.9265 16.6269 20.7105 15.29 21.2905C13.9531 21.8706 12.5231 22.1592 11 22.1562Z" fill="white" fill-opacity="0.6"/>
</svg>
