<svg width="24" height="22" viewBox="0 0 24 22" fill="none" xmlns="http://www.w3.org/2000/svg">
<path d="M22.8153 4.50078L20.4278 0.721615C20.2153 0.384115 19.8361 0.175781 19.4319 0.175781H4.56527C4.16111 0.175781 3.78194 0.384115 3.56944 0.721615L1.17777 4.50078C-0.0555609 6.45078 1.03611 9.16328 3.34027 9.47578C3.50694 9.49661 3.67777 9.50912 3.84444 9.50912C4.93194 9.50912 5.89861 9.03411 6.56111 8.30078C7.22361 9.03411 8.19027 9.50912 9.27777 9.50912C10.3653 9.50912 11.3319 9.03411 11.9944 8.30078C12.6569 9.03411 13.6236 9.50912 14.7111 9.50912C15.8028 9.50912 16.7653 9.03411 17.4278 8.30078C18.0944 9.03411 19.0569 9.50912 20.1444 9.50912C20.3153 9.50912 20.4819 9.49661 20.6486 9.47578C22.9611 9.16745 24.0569 6.45495 22.8194 4.50078H22.8153ZM20.8194 10.7966H20.8153C20.5944 10.8258 20.3694 10.8424 20.1403 10.8424C19.6236 10.8424 19.1278 10.7633 18.6653 10.6216V16.1758H5.33194V10.6174C4.86527 10.7633 4.36527 10.8424 3.84861 10.8424C3.61944 10.8424 3.39027 10.8258 3.16944 10.7966H3.16527C2.99444 10.7716 2.82777 10.7424 2.66527 10.7008V18.8424C2.66527 20.3133 3.86111 21.5091 5.33194 21.5091H18.6653C20.1361 21.5091 21.3319 20.3133 21.3319 18.8424V10.7008C21.1653 10.7424 20.9986 10.7758 20.8194 10.7966Z" fill="white" fill-opacity="0.6"/>
</svg>
