<!-- Teams -->
<svg width="24" height="21" viewBox="0 0 24 21" fill="none" xmlns="http://www.w3.org/2000/svg">
<path d="M12 0.841797C11.5502 0.841797 11.1048 0.927964 10.6893 1.09538C10.2737 1.26279 9.89611 1.50818 9.57806 1.81752C9.26 2.12686 9.00771 2.49411 8.83558 2.89828C8.66345 3.30246 8.57486 3.73565 8.57486 4.17313C8.57486 4.6106 8.66345 5.0438 8.83558 5.44797C9.00771 5.85215 9.26 6.21939 9.57806 6.52873C9.89611 6.83807 10.2737 7.08346 10.6893 7.25087C11.1048 7.41829 11.5502 7.50446 12 7.50446C12.9084 7.50446 13.7796 7.15348 14.4219 6.52873C15.0643 5.90399 15.4251 5.05665 15.4251 4.17313C15.4251 3.2896 15.0643 2.44227 14.4219 1.81752C13.7796 1.19277 12.9084 0.841797 12 0.841797ZM19.7143 2.50579C19.0323 2.50579 18.3782 2.76929 17.896 3.23832C17.4138 3.70735 17.1429 4.34349 17.1429 5.00679C17.1429 5.6701 17.4138 6.30624 17.896 6.77526C18.3782 7.24429 19.0323 7.50779 19.7143 7.50779C20.3963 7.50779 21.0503 7.24429 21.5326 6.77526C22.0148 6.30624 22.2857 5.6701 22.2857 5.00679C22.2857 4.34349 22.0148 3.70735 21.5326 3.23832C21.0503 2.76929 20.3963 2.50579 19.7143 2.50579ZM4.28571 2.50579C3.60373 2.50579 2.94968 2.76929 2.46744 3.23832C1.9852 3.70735 1.71429 4.34349 1.71429 5.00679C1.71429 5.6701 1.9852 6.30624 2.46744 6.77526C2.94968 7.24429 3.60373 7.50779 4.28571 7.50779C4.9677 7.50779 5.62175 7.24429 6.10399 6.77526C6.58623 6.30624 6.85714 5.6701 6.85714 5.00679C6.85714 4.34349 6.58623 3.70735 6.10399 3.23832C5.62175 2.76929 4.9677 2.50579 4.28571 2.50579ZM6.85714 10.8308C6.86031 10.3906 7.04232 9.9695 7.36347 9.65934C7.68462 9.34917 8.11884 9.17511 8.57143 9.17512H15.4286C15.8832 9.17512 16.3193 9.35079 16.6408 9.66347C16.9622 9.97616 17.1429 10.4002 17.1429 10.8425V15.8444C17.1433 16.3692 17.0588 16.8908 16.8926 17.3901C16.513 18.5217 15.731 19.4846 14.6872 20.106C13.6433 20.7273 12.4059 20.9664 11.1971 20.7802C9.98829 20.594 8.88734 19.9948 8.09191 19.0902C7.29648 18.1856 6.85869 17.0348 6.85714 15.8444V10.8308ZM5.14286 10.8425C5.14286 10.2339 5.30914 9.66532 5.60229 9.17512H1.71429C1.25963 9.17512 0.823594 9.35079 0.502103 9.66347C0.180612 9.97616 2.3728e-07 10.4002 2.3728e-07 10.8425V15.0108C-0.000233225 15.6932 0.171816 16.3653 0.501039 16.968C0.830262 17.5706 1.30659 18.0854 1.88819 18.4672C2.46978 18.849 3.13886 19.0861 3.83667 19.1576C4.53447 19.2291 5.23965 19.1328 5.89029 18.8773C5.39793 17.9375 5.14178 16.8975 5.14286 15.8428V10.8425ZM18.8571 10.8425V15.8444C18.8571 16.9366 18.588 17.967 18.1097 18.8773C18.7603 19.1328 19.4655 19.2291 20.1633 19.1576C20.8611 19.0861 21.5302 18.849 22.1118 18.4672C22.6934 18.0854 23.1697 17.5706 23.499 16.968C23.8282 16.3653 24.0002 15.6932 24 15.0108V10.8425C24 10.4002 23.8194 9.97616 23.4979 9.66347C23.1764 9.35079 22.7404 9.17512 22.2857 9.17512H18.3977C18.6891 9.66532 18.8571 10.2339 18.8571 10.8425Z" fill="white" fill-opacity="0.6"/>
</svg>
